<svg width="92" height="94" viewBox="0 0 92 94" fill="none" xmlns="http://www.w3.org/2000/svg">
<g filter="url(#filter0_f_6_7)">
<path d="M78.9571 47.0488C77.8395 45.3685 76.3109 44.1224 74.5715 43.0795C74.5335 43.0618 74.5233 43.0338 74.4852 43.0161C67.3827 36.9685 60.2066 30.9792 53.0583 24.9798C48.353 21.0006 43.5841 17.1076 38.9422 13.042C32.7893 7.6922 23.2546 9.64473 19.7229 16.9699C18.8323 18.7803 18.5003 20.7352 18.4704 22.7382C18.4552 22.8702 18.402 22.9845 18.3868 23.1165C16.3262 34.7444 14.2936 46.3621 12.261 57.9797C11.7643 60.7852 11.2954 63.5804 10.7885 66.3579C10.7276 66.5382 10.6845 66.6803 10.7455 66.8479L10.7277 66.886C10.6035 67.5004 10.4311 68.0691 10.3348 68.6733C10.317 68.7114 10.3094 68.7774 10.3196 68.8053C10.3297 68.8333 10.312 68.8713 10.312 68.8713C9.93943 71.0623 10.1101 73.1821 10.88 75.2103C10.9308 75.3499 10.9816 75.4895 11.0603 75.619C11.0705 75.6469 11.0705 75.6469 11.0807 75.6748C11.5532 76.7993 12.1831 77.8349 12.9221 78.736C12.9704 78.7816 12.9907 78.8375 13.0389 78.8832C13.0872 78.9289 13.1354 78.9745 13.1558 79.0304C16.2413 82.5557 21.0399 84.0978 25.7031 82.7484C26.2438 82.5832 26.7464 82.4003 27.2389 82.1895C36.6412 78.8305 46.0308 75.3497 55.4027 71.907C60.9593 69.8846 66.4575 67.7885 72.0446 65.8499C72.6412 65.6644 73.2555 65.4408 73.8495 65.1613C80.7691 62.1052 83.3331 53.4247 78.9571 47.0488Z" fill="#C1D3DE" fill-opacity="0.5"/>
</g>
<path d="M27.7795 20.366C28.3981 18.7421 29.2487 17.2472 30.5117 16.0357C35.5636 11.1127 43.9148 12.3499 47.3429 18.5359C49.9204 23.227 52.6526 27.815 55.3075 32.4546C59.7408 40.1614 64.2257 47.8682 68.6075 55.6008C72.2934 62.0704 68.2982 70.2411 60.978 71.3495C56.4931 72.0196 52.2918 69.9576 49.972 65.9367C46.0799 59.1578 42.1621 52.3789 38.27 45.6257C38.1927 45.4711 38.0896 45.3422 37.9865 45.2133C37.5741 44.8783 37.3937 44.3885 37.1359 43.9504C35.409 40.9089 33.6305 37.8932 31.9035 34.8775C30.7952 32.9185 29.6353 30.9854 28.527 29.0265C27.5217 27.2738 27.0578 25.3664 27.1093 23.3559C27.1867 22.3249 27.3155 21.2939 27.7795 20.366Z" fill="#3C8BD9"/>
<path d="M27.7795 20.366C27.5475 21.2939 27.3413 22.2218 27.2898 23.2012C27.2124 25.3664 27.7537 27.3768 28.8363 29.2584C31.6716 34.13 34.5068 39.0273 37.3163 43.9246C37.5741 44.3627 37.7803 44.8009 38.038 45.2133C36.4915 47.894 34.945 50.5488 33.3727 53.2294C31.2076 56.9669 29.0425 60.73 26.8516 64.4675C26.7485 64.4675 26.7227 64.4159 26.6969 64.3386C26.6711 64.1324 26.7485 63.952 26.8 63.7458C27.8568 59.8795 26.9805 56.4513 24.3256 53.513C22.7018 51.7345 20.6397 50.7292 18.2684 50.3942C15.1754 49.956 12.4432 50.755 9.99454 52.6882C9.55636 53.0232 9.27284 53.513 8.75733 53.7707C8.65423 53.7707 8.60268 53.7192 8.5769 53.6418C9.81412 51.5025 11.0256 49.3632 12.2628 47.2238C17.3663 38.3571 22.4698 29.4904 27.5991 20.6495C27.6506 20.5464 27.7279 20.4691 27.7795 20.366Z" fill="#FABC04"/>
<path d="M8.68006 53.7192C9.16979 53.281 9.63374 52.8171 10.1492 52.4047C16.4126 47.4558 25.8206 51.0386 27.1867 58.8743C27.5218 60.7559 27.3414 62.5601 26.7743 64.3644C26.7485 64.519 26.7227 64.6479 26.6712 64.8026C26.4392 65.215 26.233 65.6532 25.9753 66.0656C23.6813 69.8545 20.3047 71.7361 15.8714 71.4526C10.7936 71.0917 6.79846 67.277 6.10253 62.225C5.76745 59.7764 6.25718 57.4824 7.52017 55.3688C7.77792 54.9049 8.08723 54.4925 8.37075 54.0285C8.49963 53.9254 8.44808 53.7192 8.68006 53.7192Z" fill="#34A852"/>
<defs>
<filter id="filter0_f_6_7" x="0.122559" y="0" width="90.993" height="93.233" filterUnits="userSpaceOnUse" color-interpolation-filters="sRGB">
<feFlood flood-opacity="0" result="BackgroundImageFix"/>
<feBlend mode="normal" in="SourceGraphic" in2="BackgroundImageFix" result="shape"/>
<feGaussianBlur stdDeviation="5" result="effect1_foregroundBlur_6_7"/>
</filter>
</defs>
</svg>
